<?xml version="1.0" standalone="no"?>
<!DOCTYPE svg PUBLIC "-//W3C//DTD SVG 20010904//EN"
 "http://www.w3.org/TR/2001/REC-SVG-20010904/DTD/svg10.dtd">
<svg version="1.0" xmlns="http://www.w3.org/2000/svg"
 width="631.000000pt" height="143.000000pt" viewBox="0 0 631.000000 143.000000"
 preserveAspectRatio="xMidYMid meet">

<g transform="translate(0.000000,143.000000) scale(0.100000,-0.100000)"
fill="#000000" stroke="none">
<path d="M622 1350 c-115 -30 -205 -84 -298 -175 -130 -129 -197 -288 -197
-470 0 -257 141 -479 377 -595 110 -55 204 -74 330 -67 185 9 349 85 470 218
90 100 166 270 166 372 0 20 4 38 8 41 9 5 8 23 -9 131 -39 258 -232 473 -489
544 -99 28 -255 28 -358 1z m348 -15 c106 -28 215 -91 293 -168 82 -82 127
-153 165 -259 22 -63 26 -90 26 -193 1 -98 -3 -133 -22 -195 -62 -200 -221
-362 -422 -431 -47 -16 -97 -23 -180 -27 -139 -5 -205 9 -330 69 -68 33 -101
58 -165 123 -86 87 -130 159 -164 268 -60 198 -19 412 112 583 98 127 246 215
415 245 62 12 203 4 272 -15z"/>
<path d="M860 1270 c-6 -11 -8 -20 -6 -20 3 0 10 9 16 20 6 11 8 20 6 20 -3 0
-10 -9 -16 -20z"/>
<path d="M723 1245 c0 -22 2 -30 4 -17 2 12 2 30 0 40 -3 9 -5 -1 -4 -23z"/>
<path d="M900 1260 c0 -11 2 -20 4 -20 2 0 6 9 9 20 3 11 1 20 -4 20 -5 0 -9
-9 -9 -20z"/>
<path d="M658 1263 c7 -3 16 -2 19 1 4 3 -2 6 -13 5 -11 0 -14 -3 -6 -6z"/>
<path d="M759 1253 c-13 -16 -12 -17 4 -4 9 7 17 15 17 17 0 8 -8 3 -21 -13z"/>
<path d="M946 1252 c-3 -5 8 -6 25 -4 16 2 29 6 29 8 0 8 -49 4 -54 -4z"/>
<path d="M570 1235 c-10 -12 -7 -17 15 -27 25 -11 25 -13 9 -25 -19 -14 -15
-17 10 -7 25 10 19 31 -11 39 -27 6 -27 7 -9 21 11 8 15 14 9 14 -6 0 -16 -7
-23 -15z"/>
<path d="M1031 1236 c2 -2 15 -9 29 -15 24 -11 24 -11 6 3 -16 13 -49 24 -35
12z"/>
<path d="M760 1220 c0 -5 5 -10 11 -10 5 0 7 5 4 10 -3 6 -8 10 -11 10 -2 0
-4 -4 -4 -10z"/>
<path d="M930 1221 c0 -10 39 -36 45 -29 2 2 -8 11 -21 21 -13 10 -24 13 -24
8z"/>
<path d="M675 1210 c-16 -7 -17 -9 -3 -9 9 -1 20 4 23 9 7 11 7 11 -20 0z"/>
<path d="M1100 1196 c0 -2 9 -6 20 -9 11 -3 18 -1 14 4 -5 9 -34 13 -34 5z"/>
<path d="M463 1183 c-9 -3 -11 -17 -7 -44 7 -41 -1 -50 -21 -23 -16 22 -53 10
-67 -22 -13 -27 3 -54 32 -54 21 0 85 61 85 81 0 8 10 14 22 14 13 0 23 4 23
8 1 8 -44 48 -52 46 -1 0 -9 -3 -15 -6z m22 -23 c3 -5 1 -10 -4 -10 -6 0 -11
5 -11 10 0 6 2 10 4 10 3 0 8 -4 11 -10z m-57 -73 c4 -22 -27 -35 -38 -16 -10
15 7 42 24 36 6 -2 12 -11 14 -20z"/>
<path d="M1027 1169 c7 -7 15 -10 18 -7 3 3 -2 9 -12 12 -14 6 -15 5 -6 -5z"/>
<path d="M735 1149 c-167 -21 -317 -149 -366 -311 -17 -55 -21 -88 -17 -158 4
-77 9 -98 42 -164 79 -161 229 -256 406 -256 227 0 419 164 449 383 42 298
-210 545 -514 506z m250 -47 c40 -19 91 -53 118 -80 103 -101 142 -199 135
-343 -4 -76 -9 -97 -41 -162 -57 -116 -159 -200 -282 -231 -230 -60 -466 69
-535 293 -71 227 51 460 285 544 38 13 73 17 150 14 89 -2 108 -6 170 -35z"/>
<path d="M581 933 c-37 -140 -61 -246 -58 -249 2 -2 133 59 290 136 158 77
289 140 292 140 12 0 -22 -49 -193 -278 -97 -130 -178 -240 -180 -244 -2 -5
57 -8 131 -8 121 0 136 2 141 18 10 32 116 502 116 512 0 6 -93 10 -265 10
l-264 0 -10 -37z"/>
<path d="M591 615 l-84 -55 59 1 c53 2 55 2 20 8 l-39 6 66 43 c37 23 67 44
67 47 0 8 -1 7 -89 -50z"/>
<path d="M569 503 l-24 -28 28 24 c25 23 32 31 24 31 -2 0 -14 -12 -28 -27z"/>
<path d="M505 455 c-16 -14 -25 -25 -19 -25 6 0 21 11 34 25 30 32 24 31 -15
0z"/>
<path d="M1100 1140 c-9 -6 -10 -10 -3 -10 6 0 15 5 18 10 8 12 4 12 -15 0z"/>
<path d="M1200 1126 c0 -2 7 -9 15 -16 9 -7 15 -8 15 -2 0 5 -7 12 -15 16 -8
3 -15 4 -15 2z"/>
<path d="M1191 1092 c-1 -20 -4 -21 -23 -12 -22 11 -22 11 -4 -4 23 -18 40 -7
33 20 -4 16 -5 15 -6 -4z"/>
<path d="M1250 1075 c0 -3 10 -16 21 -28 l21 -22 -11 22 c-11 22 -31 40 -31
28z"/>
<path d="M1217 1019 c12 -12 24 -21 27 -18 2 2 -8 13 -22 23 l-27 19 22 -24z"/>
<path d="M297 1008 c-2 -7 3 -21 12 -31 15 -17 14 -18 -10 -12 -40 10 -44 -18
-6 -41 l32 -19 -38 -3 c-49 -4 -57 -25 -23 -61 14 -15 26 -30 26 -34 0 -12
-28 -8 -32 5 -8 24 -38 -1 -38 -32 0 -25 4 -30 25 -31 14 -1 30 -2 35 -3 6 -1
10 4 9 9 -1 6 -5 9 -10 7 -17 -4 -50 18 -43 29 4 7 10 7 17 0 20 -20 44 -12
50 16 3 16 0 31 -5 34 -15 9 -2 39 16 39 24 0 26 37 2 54 -20 15 -20 15 5 6
37 -12 44 -1 17 27 -12 13 -16 23 -10 23 6 0 14 -4 17 -10 8 -13 25 -13 25 0
0 8 -50 40 -64 40 -2 0 -6 -6 -9 -12z m-17 -138 c0 -5 -2 -10 -4 -10 -3 0 -8
5 -11 10 -3 6 -1 10 4 10 6 0 11 -4 11 -10z"/>
<path d="M1270 975 c-14 -8 -20 -14 -14 -15 5 0 19 7 30 15 24 18 16 19 -16 0z"/>
<path d="M1289 943 c-13 -16 -12 -17 4 -4 16 13 21 21 13 21 -2 0 -10 -8 -17
-17z"/>
<path d="M1316 931 c-4 -5 3 -7 14 -4 23 6 26 13 6 13 -8 0 -17 -4 -20 -9z"/>
<path d="M1320 760 c0 -5 5 -10 10 -10 6 0 10 5 10 10 0 6 -4 10 -10 10 -5 0
-10 -4 -10 -10z"/>
<path d="M210 721 c0 -6 10 -17 22 -25 l22 -16 -22 0 c-39 0 -24 -18 19 -22
46 -4 62 8 27 21 -20 8 -21 10 -5 16 9 4 17 14 17 21 0 12 -4 12 -21 3 -15 -8
-24 -8 -32 0 -13 13 -27 14 -27 2z"/>
<path d="M1328 703 c7 -3 16 -2 19 1 4 3 -2 6 -13 5 -11 0 -14 -3 -6 -6z"/>
<path d="M1338 663 c7 -3 16 -2 19 1 4 3 -2 6 -13 5 -11 0 -14 -3 -6 -6z"/>
<path d="M243 633 c-38 -7 -26 -23 17 -23 29 0 40 4 40 15 0 15 -13 17 -57 8z"/>
<path d="M1320 635 c-1 -31 53 -47 64 -19 9 24 7 31 -5 12 -5 -10 -16 -18 -24
-18 -8 0 -19 8 -24 18 -6 9 -11 12 -11 7z"/>
<path d="M1305 513 c4 -15 1 -22 -12 -25 -10 -3 2 -5 26 -5 35 0 40 2 25 10
-11 6 -25 18 -32 26 -11 14 -12 13 -7 -6z"/>
<path d="M270 484 c-14 -8 -18 -13 -9 -10 9 2 22 -1 28 -7 7 -7 12 -7 11 -2
-5 22 1 27 15 15 13 -11 14 -10 9 4 -8 20 -22 20 -54 0z"/>
<path d="M1256 443 c-13 -27 -13 -28 23 -46 l36 -17 -30 24 c-37 32 -28 43 17
20 30 -15 32 -15 19 -1 -12 15 -11 17 5 17 14 0 12 4 -10 15 -38 20 -43 19
-60 -12z m44 7 c0 -5 -4 -10 -10 -10 -5 0 -10 5 -10 10 0 6 5 10 10 10 6 0 10
-4 10 -10z"/>
<path d="M298 449 c-22 -12 -23 -42 -2 -60 31 -26 70 25 44 56 -14 17 -19 18
-42 4z m42 -29 c0 -23 -13 -32 -34 -24 -19 7 -21 25 -5 41 16 16 39 5 39 -17z"/>
<path d="M335 374 c-19 -17 -23 -24 -11 -20 14 5 17 2 12 -11 -5 -15 -4 -15 9
1 8 11 15 16 15 12 0 -5 6 -3 14 4 14 11 12 40 -3 40 -3 -1 -19 -12 -36 -26z
m45 2 c0 -11 -19 -15 -25 -6 -3 5 1 10 9 10 9 0 16 -2 16 -4z"/>
<path d="M1221 386 c-15 -18 1 -30 29 -21 22 7 26 -5 8 -23 -8 -8 -8 -12 -1
-12 6 0 16 6 22 14 15 18 -9 39 -34 29 -14 -5 -17 -3 -12 10 8 21 3 22 -12 3z"/>
<path d="M1218 338 c27 -30 12 -50 -17 -24 -25 23 -38 20 -16 -4 21 -23 50
-26 58 -7 6 16 0 26 -28 47 -16 11 -15 9 3 -12z"/>
<path d="M392 318 c-16 -16 -15 -28 4 -49 13 -14 21 -16 36 -8 17 9 19 8 14
-9 -4 -12 0 -24 10 -33 14 -12 19 -10 40 16 13 16 21 31 18 34 -2 3 -11 -5
-20 -17 -8 -12 -22 -22 -30 -22 -18 0 -18 5 3 38 17 26 17 27 -1 12 -17 -13
-19 -13 -14 0 13 37 -32 66 -60 38z m51 -10 c7 -21 -4 -38 -23 -38 -23 0 -34
16 -26 35 7 18 43 20 49 3z"/>
<path d="M1127 292 c-14 -16 -15 -23 -4 -45 6 -15 15 -27 20 -27 11 0 9 8 -10
38 l-17 27 28 -25 c27 -24 28 -25 42 -6 12 17 12 22 -3 38 -20 23 -36 23 -56
0z m51 -20 c2 -12 0 -22 -5 -22 -12 0 -33 37 -26 44 12 12 28 0 31 -22z"/>
<path d="M515 223 c-17 -14 -22 -23 -12 -19 12 4 20 -1 26 -17 9 -22 9 -22 16
5 13 49 3 59 -30 31z m25 -3 c0 -5 -5 -10 -11 -10 -5 0 -7 5 -4 10 3 6 8 10
11 10 2 0 4 -4 4 -10z"/>
<path d="M1065 240 c3 -5 18 -10 33 -9 24 0 25 1 7 9 -28 12 -47 12 -40 0z"/>
<path d="M1055 213 c15 -32 25 -42 25 -24 0 5 -9 19 -20 32 l-21 24 16 -32z"/>
<path d="M566 201 c-11 -20 -12 -32 -5 -36 6 -4 13 -4 16 -1 4 3 1 6 -6 6 -8
0 -6 8 5 25 9 14 14 28 11 31 -3 3 -13 -8 -21 -25z"/>
<path d="M599 193 c-5 -14 -8 -31 -6 -37 3 -6 8 1 12 17 4 15 13 27 21 27 10
0 11 -6 3 -26 -5 -15 -7 -29 -5 -32 3 -2 8 7 12 22 7 28 28 35 38 11 3 -8 2
-23 -1 -33 -4 -9 5 -3 19 13 27 31 30 47 4 26 -10 -9 -15 -8 -19 2 -3 8 -19
19 -37 25 -28 10 -32 9 -41 -15z"/>
<path d="M976 212 c-3 -5 4 -19 15 -30 11 -13 15 -22 8 -22 -7 0 -10 -3 -6 -6
3 -3 14 -1 24 5 10 6 12 11 6 11 -7 0 -12 10 -10 22 2 23 -26 38 -37 20z m29
-12 c3 -5 1 -10 -4 -10 -6 0 -11 5 -11 10 0 6 2 10 4 10 3 0 8 -4 11 -10z"/>
<path d="M1086 205 c4 -8 11 -15 16 -15 6 0 5 6 -2 15 -7 8 -14 15 -16 15 -2
0 -1 -7 2 -15z"/>
<path d="M909 184 c-9 -11 -10 -20 -2 -32 25 -41 86 -14 63 27 -13 25 -42 27
-61 5z m48 -5 c16 -16 5 -39 -17 -39 -23 0 -34 16 -26 35 6 18 28 19 43 4z"/>
<path d="M770 175 c0 -9 -9 -15 -22 -15 -21 -1 -22 -2 -5 -14 11 -9 15 -20 10
-32 -6 -17 -5 -17 10 -5 14 11 20 11 34 0 15 -12 16 -12 10 5 -5 12 -1 23 10
32 17 12 16 13 -4 14 -14 0 -23 6 -23 15 0 8 -4 15 -10 15 -5 0 -10 -7 -10
-15z"/>
<path d="M860 155 c0 -19 4 -35 10 -35 5 0 7 7 4 15 -4 9 0 15 7 15 11 0 11 3
-1 10 -13 9 -13 11 0 20 13 8 12 10 -2 10 -14 0 -18 -8 -18 -35z"/>
<path d="M1675 968 c-9 -40 -18 -81 -21 -90 -4 -14 1 -18 23 -18 27 0 29 3 49
90 l21 90 -28 0 c-26 0 -28 -4 -44 -72z"/>
<path d="M1775 963 c-10 -43 -20 -83 -22 -90 -4 -9 5 -13 25 -13 29 0 31 3 38
45 3 25 10 45 14 45 4 0 15 -20 24 -45 16 -41 21 -45 51 -45 l34 0 -26 46 -26
46 44 44 43 44 -32 0 c-25 0 -40 -9 -68 -40 -20 -22 -39 -39 -41 -36 -3 2 0
20 5 40 10 35 10 36 -18 36 -27 0 -29 -3 -45 -77z"/>
<path d="M1999 1018 c0 -13 -8 -53 -18 -90 l-17 -68 27 0 c26 0 28 4 39 58 16
81 17 82 45 82 34 0 31 -33 -4 -38 -18 -3 -22 -8 -17 -25 3 -12 6 -34 6 -49 0
-25 4 -28 34 -28 l34 0 -13 37 c-12 35 -12 38 16 64 33 31 35 41 13 63 -11 11
-35 16 -80 16 -60 0 -64 -2 -65 -22z"/>
<path d="M2203 949 l-62 -89 29 0 c20 0 35 8 46 25 12 18 25 25 50 25 28 0 35
-5 40 -25 5 -19 13 -25 33 -25 l27 0 -15 90 -15 90 -36 -1 c-33 0 -39 -6 -97
-90z m97 21 c0 -13 -7 -20 -20 -20 -18 0 -19 3 -10 20 6 11 15 20 20 20 6 0
10 -9 10 -20z"/>
<path d="M2417 973 c-10 -38 -20 -78 -23 -90 -5 -18 -2 -23 14 -23 16 0 24 10
31 38 6 20 11 45 11 54 0 9 5 20 10 23 6 4 10 -17 10 -54 0 -58 1 -61 25 -61
21 0 30 11 55 63 29 60 30 61 24 22 -3 -22 -8 -50 -11 -62 -4 -19 -1 -23 19
-23 22 0 25 6 37 77 7 42 15 82 18 90 4 11 -3 14 -32 11 -35 -3 -40 -8 -66
-58 l-29 -55 0 58 0 57 -38 0 -38 0 -17 -67z"/>
<path d="M2805 1026 c-84 -37 -96 -131 -20 -156 52 -17 152 -4 158 20 3 14 1
17 -11 12 -14 -5 -13 -2 1 18 18 26 22 67 9 87 -9 15 -57 33 -85 33 -12 -1
-35 -7 -52 -14z m85 -41 c10 -12 10 -21 0 -45 -22 -54 -92 -52 -98 3 -5 45 69
77 98 42z"/>
<path d="M3019 963 c-77 -110 -75 -103 -39 -103 23 0 33 6 42 25 9 20 18 25
50 25 34 0 38 -3 38 -25 0 -21 5 -25 30 -25 35 0 34 -6 15 93 -8 43 -15 81
-15 83 0 2 -15 4 -33 4 -30 0 -39 -7 -88 -77z m81 12 c0 -18 -5 -25 -20 -25
-20 0 -20 1 -4 25 9 14 18 25 20 25 2 0 4 -11 4 -25z"/>
<path d="M1660 725 c0 -28 4 -35 20 -35 23 0 27 28 5 36 -8 4 -15 11 -15 16 0
6 7 7 16 4 8 -3 12 -2 9 4 -15 24 -35 9 -35 -25z m30 -15 c0 -5 -4 -10 -10
-10 -5 0 -10 5 -10 10 0 6 5 10 10 10 6 0 10 -4 10 -10z"/>
<path d="M1713 725 c0 -22 2 -30 4 -17 2 12 2 30 0 40 -3 9 -5 -1 -4 -23z"/>
<path d="M1872 725 c0 -22 2 -34 5 -27 4 10 8 10 21 0 15 -12 16 -11 3 5 -13
16 -13 20 0 29 11 8 11 9 -3 4 -10 -3 -18 1 -21 12 -3 9 -5 -1 -5 -23z"/>
<path d="M1968 753 c7 -3 16 -2 19 1 4 3 -2 6 -13 5 -11 0 -14 -3 -6 -6z"/>
<path d="M2062 728 c-2 -34 1 -38 21 -37 15 1 17 3 5 6 -10 2 -18 17 -21 36
-4 31 -4 31 -5 -5z"/>
<path d="M2303 725 c0 -22 2 -30 4 -17 2 12 2 30 0 40 -3 9 -5 -1 -4 -23z"/>
<path d="M2358 725 c2 -19 6 -35 8 -35 2 0 4 16 4 35 0 19 -4 35 -8 35 -4 0
-6 -16 -4 -35z"/>
<path d="M2463 730 c2 -28 6 -35 22 -35 15 0 20 7 21 30 1 30 1 30 -3 2 -5
-35 -26 -30 -35 9 -6 27 -6 27 -5 -6z"/>
<path d="M2781 725 c0 -26 2 -35 8 -26 6 9 11 10 15 2 4 -6 12 -11 19 -11 6 0
2 7 -9 15 -17 13 -17 16 -4 26 13 9 13 10 -2 5 -10 -3 -18 1 -21 12 -3 9 -5
-1 -6 -23z"/>
<path d="M2864 748 c-4 -6 0 -16 9 -23 21 -15 22 -29 2 -21 -8 3 -15 1 -15 -4
0 -14 27 -12 36 2 4 6 0 16 -9 23 -21 15 -22 29 -1 21 8 -3 12 -2 9 4 -8 13
-22 13 -31 -2z"/>
<path d="M3182 740 c0 -14 2 -19 5 -12 2 6 2 18 0 25 -3 6 -5 1 -5 -13z"/>
<path d="M3273 725 c0 -22 2 -30 4 -17 2 12 2 30 0 40 -3 9 -5 -1 -4 -23z"/>
<path d="M3453 725 c0 -22 2 -30 4 -17 2 12 2 30 0 40 -3 9 -5 -1 -4 -23z"/>
<path d="M3762 732 c-1 -22 3 -35 14 -39 20 -7 34 13 33 47 -1 23 -2 23 -8 -4
-9 -42 -29 -44 -34 -4 l-4 33 -1 -33z"/>
<path d="M3908 748 c-3 -7 -2 -24 2 -38 l6 -25 6 27 c6 29 -6 60 -14 36z"/>
<path d="M4186 751 c-4 -5 3 -7 14 -4 23 6 26 13 6 13 -8 0 -17 -4 -20 -9z"/>
<path d="M4247 753 c-4 -3 -7 -17 -7 -30 0 -27 28 -42 41 -22 8 12 10 12 18 0
14 -21 41 -5 41 24 0 29 -27 45 -42 24 -7 -11 -11 -11 -15 -1 -5 13 -25 16
-36 5z m28 -28 c0 -10 -6 -20 -12 -22 -8 -3 -13 5 -13 22 0 17 5 25 13 23 6
-3 12 -13 12 -23z m55 0 c0 -26 -14 -33 -25 -15 -9 14 1 40 15 40 5 0 10 -11
10 -25z"/>
<path d="M4354 746 c-10 -26 0 -51 21 -51 16 0 20 7 20 30 0 33 -30 49 -41 21z
m36 -21 c0 -16 -6 -25 -15 -25 -9 0 -15 9 -15 25 0 16 6 25 15 25 9 0 15 -9
15 -25z"/>
<path d="M4441 725 c0 -31 2 -35 9 -20 7 18 8 19 15 3 4 -10 12 -18 18 -18 5
0 2 9 -9 21 -18 20 -18 21 1 35 10 8 14 14 8 14 -7 0 -15 -5 -19 -11 -4 -8 -9
-7 -15 2 -6 9 -9 0 -8 -26z"/>
<path d="M4850 748 c0 -6 8 -20 18 -31 16 -19 16 -19 -7 -12 -16 5 -21 4 -17
-4 9 -13 33 -14 41 -2 3 5 -2 16 -10 24 -17 18 -20 31 -5 22 6 -3 10 -1 10 4
0 6 -7 11 -15 11 -8 0 -15 -5 -15 -12z"/>
<path d="M4963 725 c0 -22 2 -30 4 -17 2 12 2 30 0 40 -3 9 -5 -1 -4 -23z"/>
<path d="M5345 737 c-4 -14 -5 -32 -2 -39 3 -7 6 1 6 17 1 23 4 27 11 15 5 -8
10 -10 10 -5 0 6 -4 17 -9 24 -8 12 -11 9 -16 -12z"/>
<path d="M5407 728 c8 -46 13 -48 13 -5 0 21 -4 37 -10 37 -5 0 -7 -14 -3 -32z"/>
<path d="M5503 725 c0 -22 2 -30 4 -17 2 12 2 30 0 40 -3 9 -5 -1 -4 -23z"/>
<path d="M4135 730 c-18 -20 -18 -20 11 -19 20 1 23 3 10 6 -15 4 -16 7 -5 13
7 5 11 11 8 15 -3 3 -14 -4 -24 -15z"/>
<path d="M1734 725 c-4 -9 -2 -21 4 -27 16 -16 47 -5 47 17 0 26 -42 34 -51
10z m41 -4 c7 -12 -12 -24 -25 -16 -11 7 -4 25 10 25 5 0 11 -4 15 -9z"/>
<path d="M1804 725 c-3 -8 -3 -19 1 -25 8 -12 45 -14 45 -1 0 5 -9 7 -20 4
-14 -4 -20 0 -20 12 0 12 6 16 20 12 11 -3 20 -1 20 4 0 15 -40 10 -46 -6z"/>
<path d="M1950 730 c0 -5 7 -10 15 -10 8 0 15 -5 15 -11 0 -7 -9 -9 -21 -6
-16 4 -19 3 -11 -5 12 -12 42 -4 42 11 0 6 -9 15 -20 21 -14 7 -20 7 -20 0z"/>
<path d="M2114 726 c-8 -22 4 -36 29 -35 20 1 20 2 -3 9 -25 8 -25 8 -2 9 14
1 22 6 20 14 -7 18 -37 21 -44 3z m33 -2 c-3 -3 -12 -4 -19 -1 -8 3 -5 6 6 6
11 1 17 -2 13 -5z"/>
<path d="M2181 717 c7 -15 13 -26 14 -25 1 2 8 14 15 28 12 22 11 23 -2 13
-11 -10 -17 -10 -27 0 -10 10 -10 7 0 -16z"/>
<path d="M2234 726 c-8 -22 4 -36 29 -35 20 1 20 2 -3 9 -25 8 -25 8 -2 9 14
1 22 6 20 14 -7 18 -37 21 -44 3z m33 -2 c-3 -3 -12 -4 -19 -1 -8 3 -5 6 6 6
11 1 17 -2 13 -5z"/>
<path d="M2531 713 c0 -27 0 -28 10 -5 5 13 13 20 19 17 5 -3 10 -1 10 4 0 6
-9 11 -20 11 -15 0 -20 -6 -19 -27z"/>
<path d="M2592 715 c0 -16 2 -22 5 -12 2 9 2 23 0 30 -3 6 -5 -1 -5 -18z"/>
<path d="M2611 701 c0 -21 3 -30 7 -21 4 8 16 15 27 15 13 0 20 7 20 20 0 15
-7 20 -27 21 -26 1 -28 -2 -27 -35z m44 20 c7 -12 -12 -24 -25 -16 -11 7 -4
25 10 25 5 0 11 -4 15 -9z"/>
<path d="M2684 725 c-8 -21 4 -35 29 -33 31 3 31 43 -1 46 -12 1 -25 -5 -28
-13z m36 -10 c0 -8 -7 -15 -15 -15 -8 0 -15 7 -15 15 0 8 7 15 15 15 8 0 15
-7 15 -15z"/>
<path d="M2751 713 c0 -25 1 -26 9 -8 12 27 12 35 0 35 -5 0 -10 -12 -9 -27z"/>
<path d="M2914 715 c1 -29 41 -27 42 3 1 18 1 19 -3 2 -5 -25 -30 -26 -36 -2
-3 13 -4 12 -3 -3z"/>
<path d="M2971 710 l0 -25 11 25 11 25 7 -25 8 -25 1 27 c1 21 -3 26 -19 25
-15 -1 -20 -8 -19 -27z"/>
<path d="M3032 728 c-15 -15 3 -38 29 -38 14 0 19 7 19 25 0 27 -26 35 -48 13z
m33 -7 c7 -12 -12 -24 -25 -16 -11 7 -4 25 10 25 5 0 11 -4 15 -9z"/>
<path d="M3204 725 c-8 -21 4 -35 29 -33 31 3 31 43 -1 46 -12 1 -25 -5 -28
-13z m36 -10 c0 -8 -7 -15 -15 -15 -8 0 -15 7 -15 15 0 8 7 15 15 15 8 0 15
-7 15 -15z"/>
<path d="M3294 725 c-8 -21 4 -35 29 -33 31 3 31 43 -1 46 -12 1 -25 -5 -28
-13z m36 -10 c0 -8 -7 -15 -15 -15 -8 0 -15 7 -15 15 0 8 7 15 15 15 8 0 15
-7 15 -15z"/>
<path d="M3361 711 c0 -25 0 -26 9 -3 12 27 27 29 33 2 4 -17 4 -16 3 2 -1 16
-8 23 -23 24 -19 1 -23 -4 -22 -25z"/>
<path d="M3490 730 c-13 -8 -12 -11 5 -24 27 -21 30 -20 43 9 10 21 9 25 -3
25 -8 0 -14 -3 -14 -7 3 -21 -2 -33 -12 -28 -6 4 -8 13 -5 21 6 16 6 17 -14 4z"/>
<path d="M3564 725 c-8 -20 4 -35 27 -35 14 0 19 7 19 25 0 18 -5 25 -20 25
-11 0 -23 -7 -26 -15z m28 -10 c0 -5 -5 -11 -11 -13 -6 -2 -11 4 -11 13 0 9 5
15 11 13 6 -2 11 -8 11 -13z"/>
<path d="M3631 713 l0 -28 11 25 11 25 6 -25 c7 -25 7 -25 13 -2 8 27 25 29
31 2 4 -17 4 -17 3 2 -1 19 -8 23 -38 25 -36 3 -38 2 -37 -24z"/>
<path d="M3821 713 c0 -28 1 -28 11 -5 6 12 15 22 19 22 4 0 10 -10 12 -22 4
-20 4 -19 6 5 1 23 -3 27 -24 27 -21 0 -25 -5 -24 -27z"/>
<path d="M3944 726 c-8 -22 4 -36 29 -35 20 1 20 2 -3 9 -25 8 -25 8 -2 9 14
1 22 6 20 14 -7 18 -37 21 -44 3z m33 -2 c-3 -3 -12 -4 -19 -1 -8 3 -5 6 6 6
11 1 17 -2 13 -5z"/>
<path d="M4011 713 c0 -27 1 -27 9 -5 12 27 27 29 33 2 4 -17 4 -16 3 2 -1 16
-8 24 -23 26 -19 3 -23 -1 -22 -25z"/>
<path d="M4206 731 c-4 -6 -2 -11 3 -11 6 0 11 -5 11 -11 0 -6 -9 -9 -20 -6
-11 3 -18 1 -14 -4 7 -12 31 -11 39 1 3 5 2 17 -3 26 -6 11 -11 13 -16 5z"/>
<path d="M4504 725 c-8 -20 4 -35 27 -35 14 0 19 7 19 25 0 18 -5 25 -20 25
-11 0 -23 -7 -26 -15z m28 -10 c0 -5 -5 -11 -11 -13 -6 -2 -11 4 -11 13 0 9 5
15 11 13 6 -2 11 -8 11 -13z"/>
<path d="M4568 705 c-2 -19 0 -35 4 -35 4 0 8 16 8 35 0 19 -2 35 -4 35 -2 0
-6 -16 -8 -35z"/>
<path d="M4594 725 c-8 -21 4 -35 29 -33 31 3 31 43 -1 46 -12 1 -25 -5 -28
-13z m36 -10 c0 -8 -7 -15 -15 -15 -8 0 -15 7 -15 15 0 8 7 15 15 15 8 0 15
-7 15 -15z"/>
<path d="M4661 713 c0 -27 1 -27 9 -5 12 27 27 29 33 2 4 -17 4 -16 3 2 -1 16
-8 24 -23 26 -19 3 -23 -1 -22 -25z"/>
<path d="M4725 728 c-9 -26 2 -53 23 -56 12 -2 22 0 23 5 0 4 2 20 4 36 3 23
0 27 -21 27 -14 0 -27 -6 -29 -12z m38 -17 c6 -23 0 -31 -22 -30 -12 0 -11 3
4 9 17 7 17 9 3 9 -10 1 -18 8 -18 16 0 22 27 18 33 -4z"/>
<path d="M4904 726 c-8 -22 4 -36 29 -35 20 1 20 2 -3 9 -25 8 -25 8 -2 9 14
1 22 6 20 14 -7 18 -37 21 -44 3z m33 -2 c-3 -3 -12 -4 -19 -1 -8 3 -5 6 6 6
11 1 17 -2 13 -5z"/>
<path d="M4992 728 c-15 -15 3 -38 29 -38 14 0 19 7 19 25 0 27 -26 35 -48 13z
m33 -7 c7 -12 -12 -24 -25 -16 -11 7 -4 25 10 25 5 0 11 -4 15 -9z"/>
<path d="M5061 713 c0 -27 0 -28 10 -5 5 13 13 20 19 17 5 -3 10 -1 10 4 0 6
-9 11 -20 11 -15 0 -20 -6 -19 -27z"/>
<path d="M5125 728 c-9 -26 2 -53 21 -53 14 0 20 8 22 33 3 27 0 32 -18 32
-11 0 -23 -6 -25 -12z m27 -13 c0 -5 -5 -11 -11 -13 -6 -2 -11 4 -11 13 0 9 5
15 11 13 6 -2 11 -8 11 -13z m5 -31 c-3 -3 -12 -4 -19 -1 -8 3 -5 6 6 6 11 1
17 -2 13 -5z"/>
<path d="M5187 726 c-7 -19 18 -40 39 -32 8 3 14 14 12 23 -4 22 -43 29 -51 9z
m43 -11 c0 -8 -6 -15 -14 -15 -17 0 -28 14 -19 24 12 12 33 6 33 -9z"/>
<path d="M5251 713 c0 -16 3 -22 6 -13 3 8 10 21 16 28 7 8 5 12 -7 12 -11 0
-16 -8 -15 -27z"/>
<path d="M5434 725 c-9 -22 4 -35 31 -33 36 3 35 43 0 46 -15 1 -28 -4 -31
-13z m41 -4 c7 -12 -12 -24 -25 -16 -11 7 -4 25 10 25 5 0 11 -4 15 -9z"/>
<path d="M5524 725 c-9 -22 4 -35 31 -33 36 3 35 43 0 46 -15 1 -28 -4 -31
-13z m41 -4 c7 -12 -12 -24 -25 -16 -11 7 -4 25 10 25 5 0 11 -4 15 -9z"/>
<path d="M5599 720 c4 -14 6 -31 4 -37 -3 -7 -2 -13 1 -13 9 0 38 61 32 67 -3
3 -8 -2 -12 -11 -6 -15 -7 -15 -20 1 -13 16 -13 16 -5 -7z"/>
<path d="M5650 725 c0 -8 6 -15 13 -15 8 0 7 -4 -3 -10 -9 -6 -10 -10 -3 -10
17 0 25 17 12 26 -8 4 -7 9 2 15 11 7 10 9 -3 9 -10 0 -18 -7 -18 -15z"/>
<path d="M5692 715 c0 -16 2 -22 5 -12 2 9 2 23 0 30 -3 6 -5 -1 -5 -18z"/>
<path d="M5714 725 c-9 -21 4 -35 30 -33 34 3 33 43 -1 46 -13 1 -26 -5 -29
-13z m36 -10 c0 -8 -7 -15 -15 -15 -8 0 -15 7 -15 15 0 8 7 15 15 15 8 0 15
-7 15 -15z"/>
<path d="M3728 713 c7 -3 16 -2 19 1 4 3 -2 6 -13 5 -11 0 -14 -3 -6 -6z"/>
<path d="M3150 698 c0 -4 7 -8 15 -8 8 0 15 4 15 8 0 5 -7 9 -15 9 -8 0 -15
-4 -15 -9z"/>
<path d="M5370 700 c0 -5 5 -10 10 -10 6 0 10 5 10 10 0 6 -4 10 -10 10 -5 0
-10 -4 -10 -10z"/>
<path d="M1657 632 c6 -4 13 -21 15 -37 3 -29 4 -29 9 8 4 32 2 37 -16 37 -12
0 -16 -3 -8 -8z"/>
<path d="M1857 633 c-9 -9 -9 -71 1 -76 4 -3 7 15 7 39 0 24 0 44 -1 44 0 0
-4 -3 -7 -7z"/>
<path d="M1894 615 c-8 -13 -13 -29 -9 -35 10 -17 33 -12 45 10 6 11 7 20 3
19 -27 -5 -35 1 -23 16 7 8 10 15 6 15 -3 0 -13 -11 -22 -25z m26 -25 c0 -5
-7 -10 -15 -10 -8 0 -15 5 -15 10 0 6 7 10 15 10 8 0 15 -4 15 -10z"/>
<path d="M1940 632 c0 -4 9 -8 19 -8 11 0 17 4 15 8 -3 4 -12 8 -20 8 -8 0
-14 -4 -14 -8z"/>
<path d="M1996 631 c-4 -5 3 -7 16 -3 21 5 22 4 9 -11 -9 -11 -10 -17 -2 -17
6 0 11 -5 11 -11 0 -7 -9 -9 -21 -6 -16 4 -19 3 -11 -5 19 -19 41 -2 38 29 -3
28 -28 43 -40 24z"/>
<path d="M2055 595 c0 -24 3 -41 8 -38 4 2 7 19 7 38 0 19 -3 36 -7 38 -5 3
-8 -14 -8 -38z"/>
<path d="M2117 613 c-6 -32 5 -48 27 -40 20 8 16 61 -5 65 -11 2 -18 -6 -22
-25z m33 7 c0 -5 -4 -10 -10 -10 -5 0 -10 5 -10 10 0 6 5 10 10 10 6 0 10 -4
10 -10z m0 -30 c0 -5 -7 -10 -15 -10 -8 0 -15 5 -15 10 0 6 7 10 15 10 8 0 15
-4 15 -10z"/>
<path d="M2183 633 c21 -6 21 -12 1 -41 -8 -12 -11 -22 -6 -22 4 0 16 16 25
35 l17 35 -28 -1 c-17 -1 -20 -3 -9 -6z"/>
<path d="M2235 630 c-4 -6 1 -7 11 -3 13 5 16 3 11 -10 -3 -9 -2 -17 3 -17 6
0 10 -5 10 -11 0 -6 -9 -9 -20 -6 -11 3 -18 2 -15 -2 2 -4 25 -8 49 -9 45 0
46 0 43 31 -3 37 -37 53 -37 18 0 -12 -4 -21 -10 -21 -5 0 -10 9 -10 20 0 21
-24 28 -35 10z m85 -10 c0 -5 -4 -10 -10 -10 -5 0 -10 5 -10 10 0 6 5 10 10
10 6 0 10 -4 10 -10z m0 -30 c0 -5 -7 -10 -15 -10 -8 0 -15 5 -15 10 0 6 7 10
15 10 8 0 15 -4 15 -10z"/>
<path d="M2375 630 c-4 -6 1 -7 11 -3 13 5 16 3 11 -10 -3 -9 -2 -17 3 -17 6
0 10 -5 10 -11 0 -7 -9 -9 -21 -6 -16 4 -19 3 -11 -5 15 -15 45 -1 38 18 -3 9
-6 22 -6 30 0 16 -26 19 -35 4z"/>
<path d="M2435 631 c-3 -6 0 -8 8 -5 10 4 15 -2 15 -21 0 -18 -5 -25 -14 -21
-8 3 -14 1 -14 -4 0 -6 9 -10 21 -10 17 0 20 5 17 32 -3 32 -21 48 -33 29z"/>
<path d="M2487 613 c-6 -32 5 -48 27 -40 20 8 16 61 -5 65 -11 2 -18 -6 -22
-25z m33 7 c0 -5 -4 -10 -10 -10 -5 0 -10 5 -10 10 0 6 5 10 10 10 6 0 10 -4
10 -10z m0 -30 c0 -5 -7 -10 -15 -10 -8 0 -15 5 -15 10 0 6 7 10 15 10 8 0 15
-4 15 -10z"/>
<path d="M2547 633 c-3 -5 -4 -19 -3 -33 1 -18 7 -25 21 -25 11 0 20 6 19 13
-1 6 -2 21 -2 32 -2 19 -26 28 -35 13z m23 -13 c0 -5 -4 -10 -10 -10 -5 0 -10
5 -10 10 0 6 5 10 10 10 6 0 10 -4 10 -10z m10 -30 c0 -5 -7 -10 -15 -10 -8 0
-15 5 -15 10 0 6 7 10 15 10 8 0 15 -4 15 -10z"/>
<path d="M2761 603 c1 -21 3 -30 6 -20 5 21 31 23 39 2 4 -8 17 -15 30 -15 19
0 24 5 24 25 0 18 -5 25 -19 25 -11 0 -22 -4 -25 -9 -7 -11 -46 -3 -46 9 0 5
8 11 18 13 13 4 11 5 -5 6 -20 1 -23 -4 -22 -36z m84 -2 c7 -12 -12 -24 -25
-16 -11 7 -4 25 10 25 5 0 11 -4 15 -9z"/>
<path d="M2994 626 c-3 -8 -4 -29 -2 -48 3 -29 4 -27 8 15 5 48 3 58 -6 33z"/>
<path d="M3031 616 c-8 -13 -10 -29 -7 -35 12 -18 36 -12 36 9 0 11 -5 20 -11
20 -8 0 -8 5 1 15 7 8 8 15 3 15 -5 0 -15 -11 -22 -24z m19 -26 c0 -5 -4 -10
-10 -10 -5 0 -10 5 -10 10 0 6 5 10 10 10 6 0 10 -4 10 -10z"/>
<path d="M3076 622 c-9 -27 3 -54 23 -50 22 5 22 62 -1 66 -9 2 -19 -5 -22
-16z m34 -17 c0 -26 -14 -33 -25 -15 -9 14 1 40 15 40 5 0 10 -11 10 -25z"/>
<path d="M3136 631 c-4 -5 3 -7 16 -3 21 5 22 4 9 -11 -9 -11 -10 -17 -2 -17
6 0 11 -5 11 -11 0 -7 -9 -9 -21 -6 -16 4 -19 3 -11 -5 19 -19 41 -2 38 29 -3
28 -28 43 -40 24z"/>
<path d="M3195 595 c0 -24 3 -38 7 -32 4 7 8 21 8 32 0 11 -4 25 -8 32 -4 6
-7 -8 -7 -32z"/>
<path d="M3257 613 c-6 -32 5 -48 27 -40 20 8 16 61 -5 65 -11 2 -18 -6 -22
-25z m33 7 c0 -5 -4 -10 -10 -10 -5 0 -10 5 -10 10 0 6 5 10 10 10 6 0 10 -4
10 -10z m0 -30 c0 -5 -7 -10 -15 -10 -8 0 -15 5 -15 10 0 6 7 10 15 10 8 0 15
-4 15 -10z"/>
<path d="M3323 633 c21 -6 21 -12 1 -41 -8 -12 -11 -22 -6 -22 4 0 16 16 25
35 l17 35 -28 -1 c-17 -1 -20 -3 -9 -6z"/>
<path d="M3375 631 c-3 -6 0 -8 8 -5 10 4 15 -2 15 -21 0 -18 -5 -25 -14 -21
-8 3 -14 1 -14 -4 0 -6 9 -10 21 -10 17 0 20 5 17 32 -3 32 -21 48 -33 29z"/>
<path d="M3442 620 c-16 -26 -15 -50 2 -50 21 0 30 18 17 34 -7 9 -7 16 1 24
7 7 8 12 2 12 -5 0 -15 -9 -22 -20z m18 -30 c0 -5 -4 -10 -10 -10 -5 0 -10 5
-10 10 0 6 5 10 10 10 6 0 10 -4 10 -10z"/>
<path d="M3522 633 c16 -4 17 -7 2 -35 -9 -17 -11 -27 -5 -23 6 3 18 19 26 36
15 29 15 29 -12 28 -17 -1 -21 -3 -11 -6z"/>
<path d="M3575 629 c-4 -6 -4 -13 -1 -16 3 -4 6 -1 6 6 0 8 7 11 15 7 8 -3 15
-1 15 4 0 13 -27 13 -35 -1z"/>
<path d="M3630 620 c0 -11 7 -20 15 -20 8 0 15 -4 15 -9 0 -5 -16 -9 -35 -9
-32 0 -34 2 -23 17 9 11 6 10 -10 -3 -12 -11 -22 -20 -22 -22 0 -2 20 -3 45
-2 50 1 67 14 42 33 -22 16 -21 22 1 28 13 4 11 5 -5 6 -17 1 -23 -5 -23 -19z"/>
<path d="M3706 632 c-4 -6 -4 -17 0 -24 4 -6 3 -8 -4 -4 -6 3 -13 2 -17 -4 -3
-5 0 -10 9 -10 8 0 16 -5 18 -12 8 -22 15 16 8 42 -4 17 -8 21 -14 12z"/>
<path d="M2660 620 c0 -5 5 -10 10 -10 6 0 10 5 10 10 0 6 -4 10 -10 10 -5 0
-10 -4 -10 -10z"/>
<path d="M1704 606 c-8 -22 4 -36 29 -35 20 1 20 2 -3 9 -25 8 -25 8 -2 9 14
1 22 6 20 14 -7 18 -37 21 -44 3z m33 -2 c-3 -3 -12 -4 -19 -1 -8 3 -5 6 6 6
11 1 17 -2 13 -5z"/>
<path d="M2878 608 c9 -9 8 -16 -1 -27 -11 -14 -10 -14 6 -2 11 9 17 10 17 2
0 -6 5 -11 12 -11 9 0 9 3 1 11 -6 6 -9 17 -7 23 2 6 -5 12 -17 13 -16 2 -19
-1 -11 -9z"/>
<path d="M1940 578 c0 -4 6 -8 14 -8 8 0 17 4 20 8 2 4 -4 8 -15 8 -10 0 -19
-4 -19 -8z"/>
<path d="M2406 514 c-9 -8 -16 -21 -16 -27 0 -6 7 -1 16 11 20 28 42 28 54 0
5 -14 9 -17 9 -7 1 18 -18 39 -35 39 -7 0 -20 -7 -28 -16z"/>
<path d="M1913 485 c0 -22 2 -30 4 -17 2 12 2 30 0 40 -3 9 -5 -1 -4 -23z"/>
<path d="M2502 485 c0 -22 2 -34 5 -27 4 10 8 10 21 0 15 -12 16 -11 3 5 -13
16 -13 20 0 29 11 8 11 9 -3 4 -10 -3 -18 1 -21 12 -3 9 -5 -1 -5 -23z"/>
<path d="M1663 489 c-15 -15 1 -39 26 -38 12 0 11 2 -4 9 -19 8 -19 9 3 9 14
1 22 6 20 14 -6 17 -31 20 -45 6z m34 -5 c-3 -3 -12 -4 -19 -1 -8 3 -5 6 6 6
11 1 17 -2 13 -5z"/>
<path d="M1721 470 c0 -25 0 -25 9 -2 5 12 14 22 19 22 5 0 12 -10 14 -22 l4
-23 2 23 c0 12 5 22 10 22 5 0 12 -10 14 -22 4 -20 4 -20 6 4 1 25 -2 27 -39
25 -36 -1 -40 -4 -39 -27z"/>
<path d="M1818 488 c-9 -23 3 -38 28 -38 19 0 24 5 24 25 0 20 -5 25 -24 25
-13 0 -26 -6 -28 -12z m37 -7 c7 -12 -12 -24 -25 -16 -11 7 -4 25 10 25 5 0
11 -4 15 -9z"/>
<path d="M2023 493 c-19 -7 -16 -16 10 -32 20 -13 21 -13 8 3 -13 15 -13 19 0
27 15 9 3 11 -18 2z"/>
<path d="M2061 473 c0 -25 1 -26 9 -8 12 27 12 35 0 35 -5 0 -10 -12 -9 -27z"/>
<path d="M2094 485 c-8 -20 4 -35 27 -35 14 0 19 7 19 25 0 18 -5 25 -20 25
-11 0 -23 -7 -26 -15z m28 -10 c0 -5 -5 -11 -11 -13 -6 -2 -11 4 -11 13 0 9 5
15 11 13 6 -2 11 -8 11 -13z"/>
<path d="M2161 473 c0 -23 2 -25 8 -9 10 27 58 31 64 5 4 -15 4 -14 3 3 -1 19
-8 23 -38 25 -36 3 -38 2 -37 -24z"/>
<path d="M2254 485 c-8 -21 6 -37 27 -32 11 3 20 -1 22 -12 3 -9 5 0 6 19 1
31 -2 36 -24 38 -15 1 -28 -4 -31 -13z m41 -4 c7 -12 -12 -24 -25 -16 -11 7
-4 25 10 25 5 0 11 -4 15 -9z"/>
<path d="M2324 485 c-9 -22 4 -35 31 -33 36 3 35 43 0 46 -15 1 -28 -4 -31
-13z m41 -4 c7 -12 -12 -24 -25 -16 -11 7 -4 25 10 25 5 0 11 -4 15 -9z"/>
<path d="M2410 480 c-9 -16 -8 -22 5 -26 25 -10 44 3 38 25 -7 27 -29 27 -43
1z m34 -5 c4 -10 -1 -15 -14 -15 -13 0 -18 5 -14 15 4 8 10 15 14 15 4 0 10
-7 14 -15z"/>
<path d="M2482 475 c0 -16 2 -22 5 -12 2 9 2 23 0 30 -3 6 -5 -1 -5 -18z"/>
<path d="M2551 472 l0 -27 11 25 10 25 9 -22 c11 -31 59 -29 59 2 0 18 -7 21
-45 22 -43 1 -45 0 -44 -25z m74 9 c7 -12 -12 -24 -25 -16 -11 7 -4 25 10 25
5 0 11 -4 15 -9z"/>
<path d="M2651 472 c0 -27 0 -27 11 -4 6 12 15 22 19 22 4 0 10 -10 12 -22 4
-23 4 -23 6 1 1 16 5 21 16 17 8 -3 15 -2 15 3 0 5 -18 9 -40 9 -37 1 -40 -1
-39 -26z"/>
<path d="M2784 485 c-11 -27 25 -50 40 -26 4 5 -3 7 -14 4 -14 -4 -20 0 -20
12 0 12 6 16 20 12 11 -3 18 -1 14 4 -8 14 -34 11 -40 -6z"/>
<path d="M2844 485 c-4 -9 -2 -21 4 -27 16 -16 47 -5 47 17 0 26 -42 34 -51
10z m41 -4 c7 -12 -12 -24 -25 -16 -11 7 -4 25 10 25 5 0 11 -4 15 -9z"/>
<path d="M2911 470 c0 -25 0 -25 9 -2 5 12 14 22 19 22 5 0 12 -10 14 -22 l4
-23 2 23 c0 12 5 22 10 22 5 0 12 -10 14 -22 4 -20 4 -20 6 4 1 25 -2 27 -39
25 -36 -1 -40 -4 -39 -27z"/>
<path d="M3031 472 c0 -27 0 -27 11 -4 6 12 15 22 19 22 4 0 10 -10 12 -22 4
-23 4 -23 6 1 1 16 5 21 16 17 8 -3 15 -2 15 3 0 5 -18 9 -40 9 -37 1 -40 -1
-39 -26z"/>
<path d="M3136 485 c3 -11 6 -28 6 -39 -1 -22 1 -20 22 24 12 25 13 30 2 17
-14 -18 -15 -18 -26 0 -11 17 -11 17 -4 -2z"/>
<path d="M1962 365 c0 -22 2 -34 5 -27 4 10 8 10 21 0 15 -12 16 -11 3 5 -13
16 -13 20 0 29 11 8 11 9 -3 4 -10 -3 -18 1 -21 12 -3 9 -5 -1 -5 -23z"/>
<path d="M1680 364 c0 -8 5 -12 10 -9 6 3 10 10 10 16 0 5 -4 9 -10 9 -5 0
-10 -7 -10 -16z"/>
<path d="M1766 364 c-6 -16 -9 -16 -17 -4 -9 12 -10 12 -5 -3 3 -10 6 -21 6
-23 0 -2 5 -4 10 -4 6 0 10 8 10 17 0 15 2 15 14 -2 13 -18 14 -18 20 3 4 12
12 20 17 17 5 -4 9 -1 9 4 0 17 -20 13 -26 -4 -6 -14 -8 -14 -19 1 -11 16 -12
15 -19 -2z"/>
<path d="M1850 373 c0 -5 7 -16 15 -26 13 -18 14 -18 24 2 16 29 13 38 -4 15
-13 -17 -14 -17 -15 -1 0 9 -4 17 -10 17 -5 0 -10 -3 -10 -7z"/>
<path d="M1942 355 c0 -16 2 -22 5 -12 2 9 2 23 0 30 -3 6 -5 -1 -5 -18z"/>
<path d="M2011 353 c0 -25 1 -26 9 -8 12 27 12 35 0 35 -5 0 -10 -12 -9 -27z"/>
<path d="M2044 365 c-8 -21 4 -35 29 -33 31 3 31 43 -1 46 -12 1 -25 -5 -28
-13z m36 -10 c0 -8 -7 -15 -15 -15 -8 0 -15 7 -15 15 0 8 7 15 15 15 8 0 15
-7 15 -15z"/>
<path d="M2111 350 c0 -25 0 -25 9 -2 5 12 14 22 19 22 5 0 12 -10 14 -22 l4
-23 2 23 c0 12 5 22 10 22 5 0 12 -10 14 -22 4 -20 4 -20 6 4 1 25 -2 27 -39
25 -36 -1 -40 -4 -39 -27z"/>
<path d="M2207 366 c-6 -15 11 -36 29 -36 7 0 15 -6 17 -12 3 -7 6 4 6 25 1
33 -2 37 -23 37 -13 0 -26 -6 -29 -14z m38 -5 c7 -12 -12 -24 -25 -16 -11 7
-4 25 10 25 5 0 11 -4 15 -9z"/>
<path d="M2277 366 c-7 -17 11 -36 35 -36 13 0 18 8 18 25 0 20 -5 25 -24 25
-13 0 -26 -6 -29 -14z m38 -5 c7 -12 -12 -24 -25 -16 -11 7 -4 25 10 25 5 0
11 -4 15 -9z"/>
<path d="M2374 365 c-3 -8 -3 -19 1 -25 8 -13 42 -13 50 0 3 6 -3 9 -14 7 -11
-1 -19 3 -18 8 1 6 10 9 20 8 10 -2 15 2 12 7 -9 15 -45 12 -51 -5z"/>
<path d="M2444 365 c-11 -27 25 -50 40 -26 4 5 -3 7 -14 4 -14 -4 -20 0 -20
12 0 12 6 16 20 12 11 -3 18 -1 14 4 -8 14 -34 11 -40 -6z"/>
<path d="M2511 353 l0 -28 11 25 11 25 6 -25 c7 -25 7 -25 13 -2 8 27 25 29
31 2 4 -17 4 -17 3 2 -1 19 -8 23 -38 25 -36 3 -38 2 -37 -24z"/>
<path d="M2631 350 c0 -25 0 -25 9 -2 5 12 14 22 19 22 5 0 12 -10 14 -22 l4
-23 2 23 c0 12 5 22 10 22 5 0 12 -10 14 -22 4 -20 4 -20 6 4 1 25 -2 27 -39
25 -36 -1 -40 -4 -39 -27z"/>
<path d="M2730 359 c7 -11 9 -27 6 -35 -10 -25 3 -15 19 16 19 37 19 50 0 24
-13 -17 -14 -17 -15 -1 0 9 -5 17 -10 17 -7 0 -7 -7 0 -21z"/>
<path d="M1660 351 c0 -6 4 -13 10 -16 6 -3 7 1 4 9 -7 18 -14 21 -14 7z"/>
<path d="M1700 340 c0 -5 5 -10 10 -10 6 0 10 5 10 10 0 6 -4 10 -10 10 -5 0
-10 -4 -10 -10z"/>
<path d="M1830 340 c0 -5 5 -10 10 -10 6 0 10 5 10 10 0 6 -4 10 -10 10 -5 0
-10 -4 -10 -10z"/>
</g>
</svg>
